HIERARCHY
ROOT Hips
{
  OFFSET 0.422985 81.1382 -0.811602
  CHANNELS 6 Xposition Yposition Zposition Zrotation Xrotation Yrotation
  JOINT Spine
  {
    OFFSET 0 9.92346 -1.22733
    CHANNELS 6 Xposition Yposition Zposition Zrotation Xrotation Yrotation
    JOINT Spine1
    {
      OFFSET -0.000138865 11.6454 -1.42234
      CHANNELS 6 Xposition Yposition Zposition Zrotation Xrotation Yrotation
      JOINT Spine2
      {
        OFFSET 9.14407e-005 13.3602 -1.62646
        CHANNELS 6 Xposition Yposition Zposition Zrotation Xrotation Yrotation
        JOINT Neck
        {
          OFFSET 2.52021e-005 15.0325 0.792905
          CHANNELS 6 Xposition Yposition Zposition Zrotation Xrotation Yrotation
          JOINT Head
          {
            OFFSET 0 10.3218 3.14243
            CHANNELS 6 Xposition Yposition Zposition Zrotation Xrotation Yrotation
            End Site
            {
              OFFSET 0.000154173 18.4747 6.6364
            }
          }
        }
        JOINT LeftShoulder
        {
          OFFSET 6.10582 9.11042 0.705551
          CHANNELS 6 Xposition Yposition Zposition Zrotation Xrotation Yrotation
          JOINT LeftArm
          {
            OFFSET 12.655 -0.265934 -2.60092
            CHANNELS 6 Xposition Yposition Zposition Zrotation Xrotation Yrotation
            JOINT LeftForeArm
            {
              OFFSET 27.4047 3.91267e-005 0
              CHANNELS 6 Xposition Yposition Zposition Zrotation Xrotation Yrotation
              JOINT LeftHand
              {
                OFFSET 27.6145 2.89518e-005 1.96466e-005
                CHANNELS 6 Xposition Yposition Zposition Zrotation Xrotation Yrotation
                JOINT LeftHandMiddle1
                {
                  OFFSET 12.7755 1.3342e-005 2.04185e-005
                  CHANNELS 6 Xposition Yposition Zposition Zrotation Xrotation Yrotation
                  JOINT LeftHandMiddle2
                  {
                    OFFSET 3.61397 0 0
                    CHANNELS 6 Xposition Yposition Zposition Zrotation Xrotation Yrotation
                    JOINT LeftHandMiddle3
                    {
                      OFFSET 3.45976 0 -2.64197e-005
                      CHANNELS 6 Xposition Yposition Zposition Zrotation Xrotation Yrotation
                      End Site
                      {
                        OFFSET 3.68019 0 3.27692e-005
                      }
                    }
                  }
                }
                JOINT LeftHandThumb1
                {
                  OFFSET 3.78881 -2.167 3.00309
                  CHANNELS 6 Xposition Yposition Zposition Zrotation Xrotation Yrotation
                  JOINT LeftHandThumb2
                  {
                    OFFSET 3.67544 -2.12201 2.12201
                    CHANNELS 6 Xposition Yposition Zposition Zrotation Xrotation Yrotation
                    JOINT LeftHandThumb3
                    {
                      OFFSET 3.39436 -1.95974 1.95979
                      CHANNELS 6 Xposition Yposition Zposition Zrotation Xrotation Yrotation
                      End Site
                      {
                        OFFSET 2.6794 -1.54694 1.54692
                      }
                    }
                  }
                }
                JOINT LeftHandIndex1
                {
                  OFFSET 12.2666 -0.231669 2.82206
                  CHANNELS 6 Xposition Yposition Zposition Zrotation Xrotation Yrotation
                  JOINT LeftHandIndex2
                  {
                    OFFSET 3.89197 0 3.87215e-005
                    CHANNELS 6 Xposition Yposition Zposition Zrotation Xrotation Yrotation
                    JOINT LeftHandIndex3
                    {
                      OFFSET 3.41516 0 0
                      CHANNELS 6 Xposition Yposition Zposition Zrotation Xrotation Yrotation
                      End Site
                      {
                        OFFSET 3.07799 0 0
                      }
                    }
                  }
                }
                JOINT LeftHandRing1
                {
                  OFFSET 12.147 0.00989498 -2.21663
                  CHANNELS 6 Xposition Yposition Zposition Zrotation Xrotation Yrotation
                  JOINT LeftHandRing2
                  {
                    OFFSET 3.60119 0 3.51122e-005
                    CHANNELS 6 Xposition Yposition Zposition Zrotation Xrotation Yrotation
                    JOINT LeftHandRing3
                    {
                      OFFSET 3.30732 0 -2.08933e-005
                      CHANNELS 6 Xposition Yposition Zposition Zrotation Xrotation Yrotation
                      End Site
                      {
                        OFFSET 3.66012 0 0
                      }
                    }
                  }
                }
                JOINT LeftHandPinky1
                {
                  OFFSET 10.9082 -0.226365 -4.72582
                  CHANNELS 6 Xposition Yposition Zposition Zrotation Xrotation Yrotation
                  JOINT LeftHandPinky2
                  {
                    OFFSET 4.13665 0 2.68984e-005
                    CHANNELS 6 Xposition Yposition Zposition Zrotation Xrotation Yrotation
                    JOINT LeftHandPinky3
                    {
                      OFFSET 2.59484 0 -3.6009e-005
                      CHANNELS 6 Xposition Yposition Zposition Zrotation Xrotation Yrotation
                      End Site
                      {
                        OFFSET 2.92387 0 1.87321e-005
                      }
                    }
                  }
                }
              }
            }
          }
        }
        JOINT RightShoulder
        {
          OFFSET -6.1057 9.11051 0.705563
          CHANNELS 6 Xposition Yposition Zposition Zrotation Xrotation Yrotation
          JOINT RightArm
          {
            OFFSET -12.655 -0.266021 -2.6009
            CHANNELS 6 Xposition Yposition Zposition Zrotation Xrotation Yrotation
            JOINT RightForeArm
            {
              OFFSET -27.4047 3.28841e-005 0
              CHANNELS 6 Xposition Yposition Zposition Zrotation Xrotation Yrotation
              JOINT RightHand
              {
                OFFSET -27.6145 2.26615e-005 1.83241e-005
                CHANNELS 6 Xposition Yposition Zposition Zrotation Xrotation Yrotation
                JOINT RightHandMiddle1
                {
                  OFFSET -12.7755 0 1.80116e-005
                  CHANNELS 6 Xposition Yposition Zposition Zrotation Xrotation Yrotation
                  JOINT RightHandMiddle2
                  {
                    OFFSET -3.61397 0 0
                    CHANNELS 6 Xposition Yposition Zposition Zrotation Xrotation Yrotation
                    JOINT RightHandMiddle3
                    {
                      OFFSET -3.45976 0 -2.64579e-005
                      CHANNELS 6 Xposition Yposition Zposition Zrotation Xrotation Yrotation
                      End Site
                      {
                        OFFSET -3.68019 0 3.25098e-005
                      }
                    }
                  }
                }
                JOINT RightHandThumb1
                {
                  OFFSET -3.78881 -2.167 3.00309
                  CHANNELS 6 Xposition Yposition Zposition Zrotation Xrotation Yrotation
                  JOINT RightHandThumb2
                  {
                    OFFSET -3.67544 -2.12201 2.12201
                    CHANNELS 6 Xposition Yposition Zposition Zrotation Xrotation Yrotation
                    JOINT RightHandThumb3
                    {
                      OFFSET -3.39436 -1.95975 1.95979
                      CHANNELS 6 Xposition Yposition Zposition Zrotation Xrotation Yrotation
                      End Site
                      {
                        OFFSET -2.6794 -1.54695 1.54692
                      }
                    }
                  }
                }
                JOINT RightHandIndex1
                {
                  OFFSET -12.2666 -0.231673 2.82206
                  CHANNELS 6 Xposition Yposition Zposition Zrotation Xrotation Yrotation
                  JOINT RightHandIndex2
                  {
                    OFFSET -3.89197 0 3.7513e-005
                    CHANNELS 6 Xposition Yposition Zposition Zrotation Xrotation Yrotation
                    JOINT RightHandIndex3
                    {
                      OFFSET -3.41516 0 0
                      CHANNELS 6 Xposition Yposition Zposition Zrotation Xrotation Yrotation
                      End Site
                      {
                        OFFSET -3.07799 0 0
                      }
                    }
                  }
                }
                JOINT RightHandRing1
                {
                  OFFSET -12.147 0.0098909 -2.21663
                  CHANNELS 6 Xposition Yposition Zposition Zrotation Xrotation Yrotation
                  JOINT RightHandRing2
                  {
                    OFFSET -3.60119 0 3.4867e-005
                    CHANNELS 6 Xposition Yposition Zposition Zrotation Xrotation Yrotation
                    JOINT RightHandRing3
                    {
                      OFFSET -3.30732 0 -2.11146e-005
                      CHANNELS 6 Xposition Yposition Zposition Zrotation Xrotation Yrotation
                      End Site
                      {
                        OFFSET -3.66012 0 0
                      }
                    }
                  }
                }
                JOINT RightHandPinky1
                {
                  OFFSET -10.9082 -0.226369 -4.72582
                  CHANNELS 6 Xposition Yposition Zposition Zrotation Xrotation Yrotation
                  JOINT RightHandPinky2
                  {
                    OFFSET -4.13665 0 2.56096e-005
                    CHANNELS 6 Xposition Yposition Zposition Zrotation Xrotation Yrotation
                    JOINT RightHandPinky3
                    {
                      OFFSET -2.59484 0 -3.66612e-005
                      CHANNELS 6 Xposition Yposition Zposition Zrotation Xrotation Yrotation
                      End Site
                      {
                        OFFSET -2.92387 0 1.86957e-005
                      }
                    }
                  }
                }
              }
            }
          }
        }
      }
    }
  }
  JOINT RightUpLeg
  {
    OFFSET -9.12445 -6.6564 -0.0553779
    CHANNELS 6 Xposition Yposition Zposition Zrotation Xrotation Yrotation
    JOINT RightLeg
    {
      OFFSET -0.24468 -40.5954 -0.514528
      CHANNELS 6 Xposition Yposition Zposition Zrotation Xrotation Yrotation
      JOINT RightFoot
      {
        OFFSET 0.244669 -42.0479 -2.06023
        CHANNELS 6 Xposition Yposition Zposition Zrotation Xrotation Yrotation
        JOINT RightToeBase
        {
          OFFSET -0.37336 -10.4922 12.6407
          CHANNELS 6 Xposition Yposition Zposition Zrotation Xrotation Yrotation
          End Site
          {
            OFFSET 0 0 9.99252
          }
        }
      }
    }
  }
  JOINT LeftUpLeg
  {
    OFFSET 9.12445 -6.6564 -0.0553779
    CHANNELS 6 Xposition Yposition Zposition Zrotation Xrotation Yrotation
    JOINT LeftLeg
    {
      OFFSET 0.24468 -40.5954 -0.517041
      CHANNELS 6 Xposition Yposition Zposition Zrotation Xrotation Yrotation
      JOINT LeftFoot
      {
        OFFSET -0.24467 -42.048 -2.05764
        CHANNELS 6 Xposition Yposition Zposition Zrotation Xrotation Yrotation
        JOINT LeftToeBase
        {
          OFFSET 0.37336 -10.4922 12.6407
          CHANNELS 6 Xposition Yposition Zposition Zrotation Xrotation Yrotation
          End Site
          {
            OFFSET 0 0 9.99252
          }
        }
      }
    }
  }
}
MOTION
Frames:	4
Frame Time:	0.0333333
0.276716 81.3056 2.50788 8.75259 22.571 -26.7273 5.64832e-007 9.92346 -1.22733 -0.851296 14.9054 2.8547 -0.000138865 11.6454 -1.42234 -0.670857 8.94615 1.58961 9.14407e-005 13.3602 -1.62646 -0.775039 8.91608 1.71705 2.52021e-005 15.0325 0.792905 -7.64416 -8.06318 2.35555 2.37075e-006 10.3218 3.14243 10.3669 -41.2127 16.8043 6.10582 9.11042 0.705551 9.54783 2.74618 -7.06169 12.655 -0.265934 -2.60092 -77.5832 -22.3457 -46.6257 27.4047 3.91267e-005 6.58811e-006 9.50557e-005 -1.25437e-006 -88.6172 27.6145 2.89518e-005 1.96466e-005 20.2428 6.13452 -1.47966 12.7755 1.3342e-005 2.04185e-005 19.0513 -0.378707 -2.25657 3.61397 2.66014e-006 2.46236e-006 -23.2315 -0.560694 2.72722 3.45976 5.43247e-007 -2.64197e-005 -11.611 -0.141462 1.39118 3.78881 -2.167 3.00309 2.8645 -18.2842 -14.2805 3.67544 -2.12201 2.12201 2.06483 7.36469 34.5897 3.39436 -1.95974 1.95979 3.65004 1.54256 14.9144 12.2666 -0.231669 2.82206 19.0353 -0.378081 -2.25477 3.89197 1.68687e-006 3.87215e-005 -23.2155 -0.559937 2.72546 3.41516 5.74911e-007 -8.77053e-006 -11.611 -0.141454 1.39118 12.147 0.00989498 -2.21663 19.0353 -0.378081 -2.25477 3.60119 1.51294e-006 3.51122e-005 -23.2155 -0.559937 2.72546 3.30732 4.53174e-006 -2.08933e-005 -11.611 -0.141454 1.39118 10.9082 -0.226365 -4.72582 19.5452 -0.380084 1.80299 4.13665 2.29995e-006 2.68984e-005 -23.7097 1.05485 -0.993575 2.59484 5.93904e-008 -3.6009e-005 -11.611 -0.141454 1.39117 -6.1057 9.11051 0.705563 4.21918 4.85893 11.9223 -12.655 -0.266021 -2.6009 49.4018 -17.987 37.0408 -27.4047 3.28841e-005 5.27564e-006 -4.55242e-005 -9.0862e-006 93.1032 -27.6145 2.26615e-005 1.83241e-005 8.76231 18.8882 6.74101 -12.7755 8.94577e-006 1.80116e-005 -11.8717 -0.149321 1.43599 -3.61397 2.7565e-006 3.08034e-006 18.458 -0.359176 -2.21031 -3.45976 -1.97218e-007 -2.64579e-005 9.2307 -0.0903928 -1.11967 -3.78881 -2.167 3.00309 -0.365087 30.5745 13.3463 -3.67544 -2.12201 2.12201 -1.4691 8.16002 -37.1067 -3.39436 -1.95975 1.95979 -3.42318 0.800183 -14.1342 -12.2666 -0.231673 2.82206 -11.8717 -0.149321 1.43599 -3.89197 -7.20555e-008 3.7513e-005 18.458 -0.359176 -2.21031 -3.41516 2.52991e-007 -8.60584e-006 9.2307 -0.0903928 -1.11967 -12.147 0.0098909 -2.21663 -11.8717 -0.149321 1.43599 -3.60119 2.38565e-007 3.4867e-005 18.458 -0.359176 -2.21031 -3.30732 3.76018e-006 -2.11146e-005 9.2307 -0.0903928 -1.11967 -10.9082 -0.226369 -4.72582 -11.8717 -0.149321 1.43599 -4.13665 4.31063e-007 2.56096e-005 18.458 -0.359176 -2.21031 -2.59484 -9.57149e-007 -3.66612e-005 9.2307 -0.0903928 -1.11967 -9.12445 -6.6564 -0.0553779 -45.8948 -60.3772 -49.1876 -0.24468 -40.5954 -0.514528 -16.8004 62.9571 13.4887 0.244669 -42.0479 -2.06023 16.1994 -15.1697 1.21559 -0.37336 -10.4922 12.6407 7.8588e-006 -7.6173 -4.48686e-006 9.12445 -6.6564 -0.0553779 57.0915 -63.8125 54.2172 0.24468 -40.5954 -0.517041 9.51637 58.9908 -8.59286 -0.24467 -42.048 -2.05764 -16.4943 -6.87329 -0.191041 0.37336 -10.4922 12.6407 1.31542e-005 -9.28372e-006 -1.27203e-006 
0.234407 81.49 2.67455 8.86144 22.7567 -26.9267 5.64832e-007 9.92346 -1.22733 -0.923455 14.9197 2.61285 -0.000138865 11.6454 -1.42234 -0.673851 8.9216 1.43959 9.14407e-005 13.3602 -1.62646 -0.772249 8.89253 1.57323 2.52021e-005 15.0325 0.792905 -7.35943 -7.97465 2.55525 2.37075e-006 10.3218 3.14243 10.5156 -41.246 17.679 6.10582 9.11042 0.705551 8.51965 2.78169 -6.82097 12.655 -0.265934 -2.60092 -77.2799 -21.7899 -44.9133 27.4047 3.91267e-005 6.58811e-006 -0.000198355 1.1606e-006 -90.8716 27.6145 2.89518e-005 1.96466e-005 22.2033 6.84961 -0.501585 12.7755 1.3342e-005 2.04185e-005 19.4682 -0.395314 -2.3041 3.61397 2.66014e-006 2.46236e-006 -24.3139 -0.613396 2.84686 3.45976 5.43247e-007 -2.64197e-005 -12.1526 -0.154894 1.45514 3.78881 -2.167 3.00309 2.79057 -18.5613 -14.5997 3.67544 -2.12201 2.12201 2.07123 7.4092 34.9233 3.39436 -1.95974 1.95979 3.66085 1.56966 15.0803 12.2666 -0.231669 2.82206 19.4523 -0.39467 -2.30229 3.89197 1.68687e-006 3.87215e-005 -24.2979 -0.612603 2.8451 3.41516 5.74911e-007 -8.77053e-006 -12.1526 -0.154901 1.45515 12.147 0.00989498 -2.21663 19.4523 -0.39467 -2.30229 3.60119 1.51294e-006 3.51122e-005 -24.2979 -0.612603 2.8451 3.30732 4.53174e-006 -2.08933e-005 -12.1526 -0.154901 1.45515 10.9082 -0.226365 -4.72582 19.9622 -0.397097 1.7556 4.13665 2.29995e-006 2.68984e-005 -24.7933 1.07221 -0.842734 2.59484 5.93904e-008 -3.6009e-005 -12.1526 -0.154902 1.45513 -6.1057 9.11051 0.705563 3.98385 4.82064 11.8326 -12.655 -0.266021 -2.6009 50.9803 -16.5479 36.9983 -27.4047 3.28841e-005 5.27564e-006 -1.49426e-005 -6.20551e-006 95.8354 -27.6145 2.26615e-005 1.83241e-005 7.54989 24.2094 8.36421 -12.7755 8.94577e-006 1.80116e-005 -12.8473 -0.174753 1.5521 -3.61397 2.7565e-006 3.08034e-006 20.5128 -0.442743 -2.44647 -3.45976 -1.97218e-007 -2.64579e-005 10.2587 -0.111591 -1.24309 -3.78881 -2.167 3.00309 -0.185058 30.5806 13.4665 -3.67544 -2.12201 2.12201 -1.47222 8.19416 -37.3685 -3.39436 -1.95975 1.95979 -3.4329 0.820659 -14.2643 -12.2666 -0.231673 2.82206 -12.8473 -0.174753 1.5521 -3.89197 -7.20555e-008 3.7513e-005 20.5128 -0.442743 -2.44647 -3.41516 2.52991e-007 -8.60584e-006 10.2587 -0.111591 -1.24309 -12.147 0.0098909 -2.21663 -12.8473 -0.174753 1.5521 -3.60119 2.38565e-007 3.4867e-005 20.5128 -0.442743 -2.44647 -3.30732 3.76018e-006 -2.11146e-005 10.2587 -0.111591 -1.24309 -10.9082 -0.226369 -4.72582 -12.8473 -0.174753 1.5521 -4.13665 4.31063e-007 2.56096e-005 20.5128 -0.442743 -2.44647 -2.59484 -9.57149e-007 -3.66612e-005 10.2587 -0.111591 -1.24309 -9.12445 -6.6564 -0.0553779 -45.3403 -60.4047 -48.8345 -0.24468 -40.5954 -0.514528 -17.0844 62.5231 13.5241 0.244669 -42.0479 -2.06023 16.0787 -15.1295 1.42824 -0.37336 -10.4922 12.6407 -6.41668e-006 -7.6778 -1.15369e-005 9.12445 -6.6564 -0.0553779 56.8691 -63.6518 54.0969 0.24468 -40.5954 -0.517041 9.51603 58.7304 -8.66776 -0.24467 -42.048 -2.05764 -16.5231 -7.01118 -0.212008 0.37336 -10.4922 12.6407 1.01202e-005 -1.20104e-005 -8.47699e-007 
0.142268 81.5568 2.75862 9.03737 22.9769 -27.2207 5.64832e-007 9.92346 -1.22733 -0.914275 14.9451 2.32318 -0.000138865 11.6454 -1.42234 -0.643575 8.9108 1.25121 9.14407e-005 13.3602 -1.62646 -0.733552 8.88451 1.38922 2.52021e-005 15.0325 0.792905 -7.14268 -8.01541 2.8048 2.37075e-006 10.3218 3.14243 10.549 -41.3164 18.7849 6.10582 9.11042 0.705551 6.98824 2.84938 -6.54177 12.655 -0.265934 -2.60092 -76.3612 -21.4957 -43.2909 27.4047 3.91267e-005 6.58811e-006 -7.7842e-008 -3.07957e-006 -92.8921 27.6145 2.89518e-005 1.96466e-005 23.7841 7.06632 -0.208496 12.7755 1.3342e-005 2.04185e-005 19.7097 -0.405089 -2.33156 3.61397 2.66014e-006 2.46236e-006 -24.545 -0.624937 2.87227 3.45976 5.43247e-007 -2.64197e-005 -12.2683 -0.157858 1.46878 3.78881 -2.167 3.00309 2.72722 -18.8314 -14.9097 3.67544 -2.12201 2.12201 2.07754 7.45501 35.2662 3.39436 -1.95974 1.95979 3.67187 1.59754 15.2507 12.2666 -0.231669 2.82206 19.6937 -0.404447 -2.32975 3.89197 1.68687e-006 3.87215e-005 -24.5291 -0.624142 2.87053 3.41516 5.74911e-007 -8.77053e-006 -12.2683 -0.157852 1.46878 12.147 0.00989498 -2.21663 19.6937 -0.404447 -2.32975 3.60119 1.51294e-006 3.51122e-005 -24.5291 -0.624142 2.87053 3.30732 4.53174e-006 -2.08933e-005 -12.2683 -0.157852 1.46878 10.9082 -0.226365 -4.72582 20.2036 -0.407114 1.72822 4.13665 2.29995e-006 2.68984e-005 -25.0248 1.07555 -0.810464 2.59484 5.93904e-008 -3.6009e-005 -12.2683 -0.157848 1.46877 -6.1057 9.11051 0.705563 3.66098 4.74393 11.7118 -12.655 -0.266021 -2.6009 52.3413 -15.0675 36.8271 -27.4047 3.28841e-005 5.27564e-006 4.50233e-005 9.55795e-006 99.0095 -27.6145 2.26615e-005 1.83241e-005 6.2378 26.3675 8.48972 -12.7755 8.94577e-006 1.80116e-005 -13.8256 -0.202251 1.66809 -3.61397 2.7565e-006 3.08034e-006 22.5729 -0.534967 -2.68011 -3.45976 -1.97218e-007 -2.64579e-005 11.2895 -0.13506 -1.36648 -3.78881 -2.167 3.00309 -0.118893 30.5843 13.512 -3.67544 -2.12201 2.12201 -1.47527 8.22926 -37.6376 -3.39436 -1.95975 1.95979 -3.44284 0.841723 -14.3981 -12.2666 -0.231673 2.82206 -13.8256 -0.202251 1.66809 -3.89197 -7.20555e-008 3.7513e-005 22.5729 -0.534967 -2.68011 -3.41516 2.52991e-007 -8.60584e-006 11.2895 -0.13506 -1.36648 -12.147 0.0098909 -2.21663 -13.8256 -0.202251 1.66809 -3.60119 2.38565e-007 3.4867e-005 22.5729 -0.534967 -2.68011 -3.30732 3.76018e-006 -2.11146e-005 11.2895 -0.13506 -1.36648 -10.9082 -0.226369 -4.72582 -13.8256 -0.202251 1.66809 -4.13665 4.31063e-007 2.56096e-005 22.5729 -0.534967 -2.68011 -2.59484 -9.57149e-007 -3.66612e-005 11.2895 -0.13506 -1.36648 -9.12445 -6.6564 -0.0553779 -45.0711 -60.7038 -48.6738 -0.24468 -40.5954 -0.514528 -17.445 62.3453 13.8751 0.244669 -42.0479 -2.06023 16.0901 -15.1295 1.42317 -0.37336 -10.4922 12.6407 3.4323e-007 -7.701 1.99736e-006 9.12445 -6.6564 -0.0553779 57.0782 -63.5709 54.2932 0.24468 -40.5954 -0.517041 9.62077 58.6411 -8.76689 -0.24467 -42.048 -2.05764 -16.7752 -7.15329 -0.238037 0.37336 -10.4922 12.6407 1.20449e-007 1.08025e-006 -1.69477e-006 
-0.0110326 81.5186 2.76373 9.26268 23.1799 -27.5614 5.64832e-007 9.92346 -1.22733 -0.83589 15.0172 2.07981 -0.000138865 11.6454 -1.42234 -0.592711 8.92272 1.08234 9.14407e-005 13.3602 -1.62646 -0.674308 8.89987 1.22014 2.52021e-005 15.0325 0.792905 -7.02248 -8.13965 3.03685 2.37075e-006 10.3218 3.14243 10.2499 -41.4609 19.7651 6.10582 9.11042 0.705551 5.43319 2.91321 -6.26675 12.655 -0.265934 -2.60092 -75.4451 -21.4819 -41.7789 27.4047 3.91267e-005 6.58811e-006 4.33688e-007 1.09054e-005 -94.5547 27.6145 2.89518e-005 1.96466e-005 24.6768 6.86132 -0.181472 12.7755 1.3342e-005 2.04185e-005 19.9574 -0.415224 -2.35969 3.61397 2.66014e-006 2.46236e-006 -24.7821 -0.636889 2.89831 3.45976 5.43247e-007 -2.64197e-005 -12.387 -0.160926 1.48276 3.78881 -2.167 3.00309 2.71819 -18.8726 -14.9569 3.67544 -2.12201 2.12201 2.08376 7.50201 35.6179 3.39436 -1.95974 1.95979 3.68308 1.62621 15.4256 12.2666 -0.231669 2.82206 19.9414 -0.414575 -2.35789 3.89197 1.68687e-006 3.87215e-005 -24.7662 -0.636079 2.89657 3.41516 5.74911e-007 -8.77053e-006 -12.387 -0.160918 1.48277 12.147 0.00989498 -2.21663 19.9414 -0.414575 -2.35789 3.60119 1.51294e-006 3.51122e-005 -24.7662 -0.636079 2.89657 3.30732 4.53174e-006 -2.08933e-005 -12.387 -0.160918 1.48277 10.9082 -0.226365 -4.72582 20.4513 -0.417505 1.70017 4.13665 2.29995e-006 2.68984e-005 -25.2622 1.07886 -0.777364 2.59484 5.93904e-008 -3.6009e-005 -12.387 -0.160916 1.48277 -6.1057 9.11051 0.705563 3.39088 4.64152 11.5441 -12.655 -0.266021 -2.6009 52.9722 -13.4784 36.4074 -27.4047 3.28841e-005 5.27564e-006 1.05999e-006 -9.79393e-006 102.354 -27.6145 2.26615e-005 1.83241e-005 4.52295 27.2453 7.77195 -12.7755 8.94577e-006 1.80116e-005 -14.8064 -0.231818 1.78393 -3.61397 2.7565e-006 3.08034e-006 24.6383 -0.635822 -2.91093 -3.45976 -1.97218e-007 -2.64579e-005 12.3231 -0.160828 -1.48975 -3.78881 -2.167 3.00309 -0.122728 30.5841 13.5094 -3.67544 -2.12201 2.12201 -1.47823 8.26529 -37.9137 -3.39436 -1.95975 1.95979 -3.45299 0.863355 -14.5353 -12.2666 -0.231673 2.82206 -14.8064 -0.231818 1.78393 -3.89197 -7.20555e-008 3.7513e-005 24.6383 -0.635822 -2.91093 -3.41516 2.52991e-007 -8.60584e-006 12.3231 -0.160828 -1.48975 -12.147 0.0098909 -2.21663 -14.8064 -0.231818 1.78393 -3.60119 2.38565e-007 3.4867e-005 24.6383 -0.635822 -2.91093 -3.30732 3.76018e-006 -2.11146e-005 12.3231 -0.160828 -1.48975 -10.9082 -0.226369 -4.72582 -14.8064 -0.231818 1.78393 -4.13665 4.31063e-007 2.56096e-005 24.6383 -0.635822 -2.91093 -2.59484 -9.57149e-007 -3.66612e-005 12.3231 -0.160828 -1.48975 -9.12445 -6.6564 -0.0553779 -45.0624 -61.1854 -48.6935 -0.24468 -40.5954 -0.514528 -17.979 62.4089 14.4306 0.244669 -42.0479 -2.06023 16.3 -15.1198 1.43727 -0.37336 -10.4922 12.6407 3.70625e-006 -7.68038 -7.54008e-006 9.12445 -6.6564 -0.0553779 57.5362 -63.5355 54.6914 0.24468 -40.5954 -0.517041 9.83751 58.6678 -8.94019 -0.24467 -42.048 -2.05764 -17.0968 -7.28473 -0.264501 0.37336 -10.4922 12.6407 -1.80092e-006 4.91062e-006 -1.39149e-013 
